<svg width="57" height="45" viewBox="0 0 57 45" fill="none" xmlns="http://www.w3.org/2000/svg">
<path d="M47.7276 16.7019C51.112 16.7019 57 19.2246 57 22.2693C57 25.4009 51.112 27.8366 47.7276 27.8366H36.1891L26.2438 43.138C25.6797 44.0079 24.6307 44.5385 23.4927 44.5385H17.9313C16.8823 44.5385 16.1203 43.6512 16.4073 42.7639L21.2562 27.8366H11.0833L6.80833 32.8471C6.51146 33.1951 6.03646 33.4039 5.54167 33.4039H1.38542C0.613542 33.4039 0 32.8558 0 32.186C0 32.0729 0.0197917 31.9599 0.0494792 31.8468L3.16667 22.2693L0.0494792 12.6917C0.00989583 12.5786 0 12.4656 0 12.3525C0 11.674 0.623438 11.1346 1.38542 11.1346H5.54167C6.03646 11.1346 6.51146 11.3434 6.80833 11.6914L11.0833 16.7019H21.2661L16.4172 1.77458C16.1203 0.88729 16.8823 0 17.9313 0H23.4927C24.6307 0 25.6797 0.539334 26.2438 1.40053L36.1891 16.7019H47.7276Z" fill="white"/>
</svg>
