<svg width="48" height="48" viewBox="0 0 48 48" fill="none" xmlns="http://www.w3.org/2000/svg">
<g clip-path="url(#clip0_0_69)">
<path fill-rule="evenodd" clip-rule="evenodd" d="M6.296 21.4C5.83951 21.6632 5.46039 22.0419 5.19679 22.4982C4.93319 22.9544 4.7944 23.4721 4.7944 23.999C4.7944 24.5259 4.93319 25.0435 5.19679 25.4998C5.46039 25.956 5.83951 26.3348 6.296 26.598L36.204 43.866C36.6601 44.1293 37.1774 44.2679 37.704 44.2679C38.2306 44.2679 38.7479 44.1293 39.204 43.866C39.66 43.6027 40.0387 43.224 40.3021 42.768C40.5654 42.3119 40.704 41.7946 40.704 41.268L40.704 6.73198C40.704 6.20538 40.5654 5.68805 40.3021 5.23201C40.0387 4.77596 39.66 4.39726 39.204 4.13396C38.7479 3.87066 38.2306 3.73205 37.704 3.73206C37.1774 3.73206 36.6601 3.87068 36.204 4.13398L6.296 21.402V21.4Z" fill="black"/>
</g>
<defs>
<clipPath id="clip0_0_69">
<rect width="48" height="48" fill="white" transform="matrix(0 1 1 0 0 0)"/>
</clipPath>
</defs>
</svg>
