<svg width="30" height="28" viewBox="0 0 30 28" fill="none" xmlns="http://www.w3.org/2000/svg">
<g clip-path="url(#clip0_0_117)">
<path d="M25.1198 10.3958C26.901 10.3958 30 11.966 30 13.861C30 15.8102 26.901 17.3263 25.1198 17.3263H19.0468L13.8125 26.8503C13.5156 27.3918 12.9635 27.7221 12.3646 27.7221H9.43748C8.8854 27.7221 8.48436 27.1698 8.6354 26.6175L11.1875 17.3263H5.83332L3.58333 20.445C3.42708 20.6616 3.17708 20.7915 2.91666 20.7915H0.729165C0.322916 20.7915 0 20.4504 0 20.0335C0 19.9631 0.0104166 19.8927 0.0260416 19.8224L1.66666 13.861L0.0260416 7.8997C0.00520832 7.82931 0 7.75893 0 7.68854C0 7.26621 0.328124 6.93051 0.729165 6.93051H2.91666C3.17708 6.93051 3.42708 7.06046 3.58333 7.27704L5.83332 10.3958H11.1927L8.64061 1.10455C8.48436 0.552275 8.8854 0 9.43748 0H12.3646C12.9635 0 13.5156 0.335697 13.8125 0.871729L19.0468 10.3958H25.1198Z" fill="white"/>
</g>
<defs>
<clipPath id="clip0_0_117">
<rect width="29.3305" height="27.1035" fill="white" transform="scale(1.02282)"/>
</clipPath>
</defs>
</svg>
