<svg width="24" height="24" viewBox="0 0 24 24" fill="none" xmlns="http://www.w3.org/2000/svg">
<g clip-path="url(#clip0_0_46)">
<path fill-rule="evenodd" clip-rule="evenodd" d="M10.7 3.14802C10.8316 2.91977 11.021 2.73021 11.2491 2.59841C11.4772 2.46661 11.736 2.39722 11.9995 2.39722C12.263 2.39722 12.5218 2.46661 12.7499 2.59841C12.978 2.73021 13.1674 2.91977 13.299 3.14802L21.933 18.102C22.0646 18.33 22.134 18.5887 22.134 18.852C22.134 19.1153 22.0647 19.374 21.933 19.602C21.8014 19.83 21.612 20.0194 21.384 20.151C21.156 20.2827 20.8973 20.352 20.634 20.352H3.366C3.1027 20.352 2.84403 20.2827 2.61601 20.151C2.38799 20.0194 2.19864 19.83 2.06699 19.602C1.93534 19.374 1.86603 19.1153 1.86604 18.852C1.86604 18.5887 1.93535 18.33 2.067 18.102L10.701 3.14802H10.7Z" fill="#A1A1A1"/>
</g>
<defs>
<clipPath id="clip0_0_46">
<rect width="24" height="24" fill="white"/>
</clipPath>
</defs>
</svg>
